# AST/ASF file generated using VICON BodyLanguage
# -----------------------------------------------
:version 1.10
:name VICON
:units
  mass 1.0
  length 0.45
  angle deg
:documentation
   .ast/.asf automatically generated from VICON data using
   VICON BodyBuilder and BodyLanguage model FoxedUp or BRILLIANT.MOD
:root
   order TX TY TZ RX RY RZ
   axis XYZ
   position 0 0 0  
   orientation 0 0 0 
:bonedata
  begin
     id 1 
     name lhipjoint
     direction 0.610259 -0.730986 0.305356 
     length 2.50941 
     axis 0 0 0  XYZ
  end
  begin
     id 2 
     name lfemur
     direction 0.34202 -0.939693 0  
     length 7.48822  
     axis 0 0 20  XYZ
    dof rx ry rz
    limits (-160.0 20.0)
           (-70.0 70.0)
           (-60.0 70.0)
  end
  begin
     id 3 
     name ltibia
     direction 0.34202 -0.939693 0   
     length 7.60141   
     axis 0 0 20   XYZ
    dof rx
    limits (-10.0 170.0)
  end
  begin
     id 4 
     name lfoot
     direction 0.0673488 -0.185039 0.980421   
     length 2.04049   
     axis -90 7.62852e-016 20   XYZ
    dof rx rz
    limits (-45.0 90.0)
           (-70.0 20.0)
  end
  begin
     id 5 
     name ltoes
     direction 1.5356e-011 -4.21729e-011 1   
     length 1.02897   
     axis -90 7.62852e-016 20   XYZ
    dof rx
    limits (-90.0 20.0)
  end
  begin
     id 6 
     name rhipjoint
     direction -0.57612 -0.754205 0.315056   
     length 2.43216  
     axis 0 0 0  XYZ 
  end
  begin
     id 7 
     name rfemur
     direction -0.34202 -0.939693 0   
     length 7.42799   
     axis 0 0 -20   XYZ
    dof rx ry rz
    limits (-160.0 20.0)
           (-70.0 70.0)
           (-70.0 60.0)
  end
  begin
     id 8 
     name rtibia
     direction -0.34202 -0.939693 0   
     length 7.69484   
     axis 0 0 -20   XYZ
    dof rx
    limits (-10.0 170.0)
 end
 begin
     id 9 
     name rfoot
     direction -0.111837 -0.30727 0.945028   
     length 2.15769  
     axis -90 -7.62852e-016 -20   XYZ
    dof rx rz
    limits (-45.0 90.0)
           (-20.0 70.0)
  end
  begin
     id 10 
     name rtoes
     direction -1.53539e-011 -4.21878e-011 1   
     length 1.07391   
     axis -90 -7.62852e-016 -20   XYZ
    dof rx
    limits (-90.0 20.0)
  end
  begin
     id 11 
     name lowerback
     direction 0.00552624 0.990109 -0.140195   
     length 2.12403   
     axis 0 0 0   XYZ
    dof rx ry rz
    limits (-20.0 45.0)
           (-30.0 30.0)
           (-30.0 30.0)
  end
  begin
     id 12 
     name upperback
     direction 0.00361898 0.999976 -0.00584723   
     length 2.13232   
     axis 0 0 0   XYZ
    dof rx ry rz
    limits (-20.0 45.0)
           (-30.0 30.0)
           (-30.0 30.0)
  end
  begin
     id 13 
     name thorax
     direction -0.000331275 0.998253 0.0590847   
     length 2.17688   
     axis 0 0 0   XYZ
    dof rx ry rz
    limits (-20.0 45.0)
           (-30.0 30.0)
           (-30.0 30.0)
  end
  begin
     id 14 
     name lowerneck
     direction -0.0561561 0.979832 0.19177   
     length 1.64159   
     axis 0 0 0   XYZ
    dof rx ry rz
    limits (-20.0 45.0)
           (-30.0 30.0)
           (-30.0 30.0)
  end
  begin
     id 15 
     name upperneck
     direction 0.0827153 0.979385 -0.184293   
     length 1.68939   
     axis 0 0 0   XYZ
    dof rx ry rz
    limits (-20.0 45.0)
           (-30.0 30.0)
           (-30.0 30.0)
  end
  begin
     id 16
     name head
     direction 0.0278583 0.995936 -0.0856488  
     length 1.70207  
     axis 0 0 0   XYZ
    dof rx ry rz
    limits (-20.0 45.0)
           (-30.0 30.0)
           (-30.0 30.0)
  end
  begin
     id 17 
     name lclavicle
     direction 0.950993 0.301131 -0.0702275  
     length 3.41652  
     axis 0 0 0   XYZ
    dof ry rz
    limits (-20.0 10.0)
           (0.0 20.0)
  end
  begin
     id 18 
     name lhumerus
     direction 1 -4.48981e-011 -3.9662e-029   
     length 5.32955   
     axis 180 -30 -90   XYZ
    dof rx ry rz
    limits (-60.0 90.0)
           (-90.0 90.0)
           (-90.0 90.0)
  end
  begin
     id 19
     name lradius
     direction 1 -4.48925e-011 -9.0549e-027   
     length 3.69232   
     axis 180 -30 -90   XYZ
    dof rx
    limits (-10.0 170.0)
  end
  begin
     id 20
     name lwrist
     direction 1 -4.49007e-011 -1.49005e-026   
     length 1.84616   
     axis 9.0955e-015 90 90   XYZ
    dof ry
    limits (-180.0 0.0)
 end
  begin
     id 21 
     name lhand
     direction 1 -4.49016e-011 -2.98023e-026   
     length 0.536598   
     axis 1.90115e-014 90 90   XYZ
    dof rx rz
    limits (-90.0 90.0)
           (-45.0 45.0)
  end
  begin
     id 22 
     name lfingers
     direction 1 -4.48924e-011 -5.9578e-026   
     length 0.432619   
     axis 3.80223e-014 90 90   XYZ
    dof rx
    limits (0.0 90.0)
  end
  begin
     id 23
     name lthumb
     direction 0.707107 -6.34947e-011 0.707107   
     length 0.621157   
     axis -90 45 -3.84942e-014   XYZ
    dof rx rz
    limits (-45.0 45.0)
           (-45.0 45.0)
  end
  begin
     id 24 
     name rclavicle
     direction -0.955495 0.276497 -0.102848   
     length 3.36357  
     axis 0 0 0   XYZ 
    dof ry rz
    limits (-10.0 20.0)
           (-20.0 0.0)
  end
  begin
     id 25 
     name rhumerus
     direction -1 -4.48961e-011 3.30983e-027  
     length 5.23431   
     axis 180 30 90   XYZ
    dof rx ry rz
    limits (-90.0 60.0)
           (-90.0 90.0)
           (-90.0 90.0)
  end
  begin
     id 26 
     name rradius
     direction -1 -4.48965e-011 -6.63263e-027   
     length 3.55301   
     axis 180 30 90   XYZ
    dof rx
    limits (-10.0 170.0)
  end
  begin
     id 27 
     name rwrist
     direction -1 -4.48942e-011 -1.48958e-026   
     length 1.77651   
     axis 9.0955e-015 -90 -90   XYZ
    dof ry
    limits (-180.0 0.0)
  end
  begin
     id 28
     name rhand
     direction -1 -4.48977e-011 -2.97966e-026   
     length 0.772522   
     axis 1.90115e-014 -90 -90   XYZ
    dof rx rz
    limits (-90.0 90.0)
           (-45.0 45.0)
  end
  begin
     id 29
     name rfingers
     direction -1 -4.49135e-011 -5.96389e-026   
     length 0.622827   
     axis 3.80223e-014 -90 -90   XYZ
    dof rx
    limits (0.0 90.0)
  end
  begin
     id 30
     name rthumb
     direction -0.707107 -6.34969e-011 0.707107   
     length 0.894259   
     axis -90 -45 3.84942e-014   XYZ
    dof rx rz
    limits (-45.0 45.0)
           (-45.0 45.0)
  end
:hierarchy
  begin
    root lhipjoint rhipjoint lowerback
    lhipjoint lfemur
    lfemur ltibia
    ltibia lfoot
    lfoot ltoes
    rhipjoint rfemur
    rfemur rtibia
    rtibia rfoot
    rfoot rtoes
    lowerback upperback
    upperback thorax
    thorax lowerneck lclavicle rclavicle
    lowerneck upperneck
    upperneck head
    lclavicle lhumerus
    lhumerus lradius
    lradius lwrist
    lwrist lhand lthumb
    lhand lfingers
    rclavicle rhumerus
    rhumerus rradius
    rradius rwrist
    rwrist rhand rthumb
    rhand rfingers
  end

#!OML:ASF F:\VICON\USERDATA\INSTALL\rory3\rory3.ASF
:FULLY-SPECIFIED
:DEGREES
446
root 2.44801 17.6583 -4.04416 -0.288048 48.6924 3.43207
lowerback 10.9442 1.77571 1.85457
upperback 0.452122 2.66871 1.03084
thorax -5.63032 1.28415 -0.381321
lowerneck -19.3951 0.268463 -9.56874
upperneck 36.5088 3.41582 3.60113
head 16.0733 0.833057 3.96951
rclavicle -3.99557e-014 9.54166e-015
rhumerus -36.6672 -9.56206 -78.7548
rradius 32.8681
rwrist 5.80044
rhand -15.3391 9.38075
rfingers 7.12502
rthumb 10.8377 -20.3196
lclavicle -3.99557e-014 9.54166e-015
lhumerus -29.5605 10.5127 82.5196
lradius 30.717
lwrist -5.74902
lhand -19.0224 25.5322
lfingers 7.12502
lthumb 7.28352 55.3869
rfemur -5.19471 -3.23138 21.2062
rtibia 34.0473
rfoot -21.1375 -3.38948
rtoes 4.10187
lfemur -16.7021 1.26719 -19.5795
ltibia 45.7
lfoot -2.86311 -28.0136
ltoes -20.7124
447
root 2.4676 17.6764 -4.08285 -0.820652 48.6835 2.67548
lowerback 11.1494 1.86885 2.17602
upperback 0.365739 2.85505 1.24803
thorax -5.82935 1.3672 -0.372789
lowerneck -19.3824 0.216112 -9.49166
upperneck 36.6698 3.30216 3.65189
head 16.1616 0.800262 3.96744
rclavicle 1.85864e-014 4.77083e-015
rhumerus -36.5921 -9.40984 -78.4661
rradius 32.6535
rwrist 5.65455
rhand -15.2302 9.45728
rfingers 7.12502
rthumb 10.9427 -20.2376
lclavicle 1.85864e-014 4.77083e-015
lhumerus -29.76 11.051 82.7277
lradius 30.6001
lwrist -5.76991
lhand -19.1138 25.5172
lfingers 7.12502
lthumb 7.1953 55.3749
rfemur -5.02341 -2.95169 21.698
rtibia 33.481
rfoot -20.6923 -3.72923
rtoes 4.12595
lfemur -17.4738 0.970129 -18.6138
ltibia 46.5009
lfoot -3.25231 -28.0655
ltoes -22.5306
448
root 2.48747 17.6992 -4.11718 -1.14484 48.5546 2.19276
lowerback 11.2916 1.96942 2.24235
upperback 0.316742 3.01394 1.40989
thorax -5.96365 1.44369 -0.272299
lowerneck -19.3553 0.199583 -9.34556
upperneck 36.7329 3.21244 3.6792
head 16.1956 0.786498 3.94109
rclavicle -7.63333e-014 6.36111e-015
rhumerus -36.4008 -9.43664 -78.1743
rradius 32.3321
rwrist 5.86571
rhand -15.1657 9.5203
rfingers 7.12502
rthumb 11.005 -20.1712
lclavicle -7.63333e-014 6.36111e-015
lhumerus -29.9365 11.4614 82.8844
lradius 30.4783
lwrist -5.55012
lhand -19.4527 25.3869
lfingers 7.12502
lthumb 6.86818 55.2555
rfemur -4.84169 -2.65607 21.9706
rtibia 32.8991
rfoot -20.2487 -3.73202
rtoes 5.039
lfemur -18.1607 0.673673 -17.8065
ltibia 47.2205
lfoot -3.38003 -28.1807
ltoes -20.8787
449
root 2.50973 17.7207 -4.15208 -1.22482 48.3801 2.01967
lowerback 11.3523 2.05462 2.0954
upperback 0.303935 3.11943 1.54301
thorax -6.02498 1.50088 -0.0703106
lowerneck -19.3767 0.203733 -9.41043
upperneck 36.7677 3.17903 3.85228
head 16.2136 0.78769 4.02511
rclavicle 3.17062e-014 5.56597e-015
rhumerus -36.1505 -9.30966 -77.9245
rradius 32.0759
rwrist 6.20802
rhand -15.3452 9.49787
rfingers 7.12502
rthumb 10.8318 -20.2028
lclavicle 3.17062e-014 5.56597e-015
lhumerus -30.078 11.9582 83.0779
lradius 30.328
lwrist -5.46912
lhand -19.8467 25.386
lfingers 7.12502
lthumb 6.48776 55.2666
rfemur -4.67993 -2.47481 21.9702
rtibia 32.3312
rfoot -19.8974 -3.65648
rtoes 5.22176
lfemur -18.7536 0.289658 -17.2066
ltibia 47.8798
lfoot -3.46226 -28.0136
ltoes -19.7812
450
root 2.53347 17.7396 -4.1903 -1.33785 48.2321 1.90113
lowerback 11.5161 2.13419 2.05634
upperback 0.279476 3.22763 1.56642
thorax -6.14508 1.5536 -0.0487038
lowerneck -19.3367 0.202652 -9.37256
upperneck 36.8213 3.06139 4.1046
head 16.232 0.780367 4.11076
rclavicle -6.70898e-015 1.59028e-015
rhumerus -35.8883 -9.60619 -77.6641
rradius 31.6574
rwrist 6.75618
rhand -15.4905 9.64628
rfingers 7.12502
rthumb 10.6917 -20.0617
lclavicle -6.70898e-015 1.59028e-015
lhumerus -30.2985 12.1705 83.2018
lradius 30.2651
lwrist -5.20014
lhand -19.9971 25.7882
lfingers 7.12502
lthumb 6.34262 55.6732
rfemur -4.44202 -2.23636 21.9256
rtibia 31.7749
rfoot -19.5881 -3.78959
rtoes 5.0907
lfemur -19.2164 -0.215522 -16.6327
ltibia 48.5046
lfoot -4.71528 -27.0101
ltoes -21.9069
451
root 2.55758 17.7596 -4.229 -1.46902 48.1833 1.85535
lowerback 11.7648 2.21592 2.03943
upperback 0.269239 3.3388 1.51585
thorax -6.29217 1.60545 -0.12136
lowerneck -19.278 0.164291 -9.14154
upperneck 36.8541 2.87787 4.18548
head 16.2509 0.748701 4.07381
rclavicle 3.27249e-014 -1.27222e-014
rhumerus -35.6512 -10.3553 -77.3141
rradius 31.1645
rwrist 7.50831
rhand -15.4843 9.76676
rfingers 7.12502
rthumb 10.6976 -19.9409
lclavicle 3.27249e-014 -1.27222e-014
lhumerus -30.4957 12.338 83.2405
lradius 30.1782
lwrist -5.00041
lhand -20.4067 26.3338
lfingers 7.12502
lthumb 5.9472 56.2304
rfemur -4.07652 -2.05747 21.8412
rtibia 31.2012
rfoot -19.2919 -4.08206
rtoes 4.1209
lfemur -19.5952 -0.821536 -16.0782
ltibia 49.1094
lfoot -6.29308 -25.5144
ltoes -22.727
452
root 2.58466 17.7861 -4.26859 -1.47748 48.2287 1.95407
lowerback 11.9686 2.24481 1.96992
upperback 0.274615 3.36956 1.45222
thorax -6.40057 1.61988 -0.163087
lowerneck -19.2393 0.164735 -8.90745
upperneck 36.8264 2.80549 4.12632
head 16.238 0.744536 3.9912
rclavicle 3.10601e-014 -2.62396e-014
rhumerus -35.4043 -11.2149 -76.9061
rradius 30.7432
rwrist 8.33188
rhand -15.3387 9.62274
rfingers 7.12502
rthumb 10.838 -20.0776
lclavicle 3.10601e-014 -2.62396e-014
lhumerus -30.7432 12.5854 83.2428
lradius 30.116
lwrist -4.93573
lhand -20.9429 26.5198
lfingers 7.12502
lthumb 5.42946 56.4303
rfemur -3.69458 -1.78908 21.6757
rtibia 30.6476
rfoot -19.0223 -4.50685
rtoes 3.14451
lfemur -19.9268 -1.60175 -15.5655
ltibia 49.6716
lfoot -7.20426 -23.9177
ltoes -21.6493
453
root 2.61179 17.8114 -4.30456 -1.59395 48.2579 1.96795
lowerback 12.0934 2.22947 1.8453
upperback 0.379811 3.33569 1.47812
thorax -6.36816 1.60869 -0.0633167
lowerneck -19.2863 0.199786 -8.83623
upperneck 36.7348 2.8165 4.15017
head 16.2006 0.764045 3.98679
rclavicle -1.06052e-013 -2.06736e-014
rhumerus -34.9812 -11.9954 -76.5289
rradius 30.379
rwrist 8.97868
rhand -15.2851 9.41144
rfingers 7.12502
rthumb 10.8898 -20.2862
lclavicle -1.06052e-013 -2.06736e-014
lhumerus -31.0014 12.8653 83.2776
lradius 30.155
lwrist -4.97773
lhand -21.2696 26.1395
lfingers 7.12502
lthumb 5.11407 56.0578
rfemur -3.27782 -1.34346 21.6146
rtibia 30.145
rfoot -18.7233 -5.0386
rtoes 2.80662
lfemur -20.1443 -2.30808 -14.9429
ltibia 50.1781
lfoot -7.74256 -22.6532
ltoes -21.0478
454
root 2.63853 17.8241 -4.34004 -1.70919 48.3087 1.986
lowerback 12.1622 2.1843 1.64047
upperback 0.527224 3.2511 1.53904
thorax -6.26626 1.57665 0.130294
lowerneck -19.3469 0.232733 -8.92751
upperneck 36.5886 2.8316 4.30317
head 16.1322 0.782139 4.06522
rclavicle 7.54388e-014 -3.97569e-015
rhumerus -34.4851 -12.5621 -76.2282
rradius 30.0468
rwrist 9.32668
rhand -15.2192 9.13547
rfingers 7.12502
rthumb 10.9533 -20.5588
lclavicle 7.54388e-014 -3.97569e-015
lhumerus -31.1707 12.9617 83.381
lradius 30.2065
lwrist -4.77996
lhand -21.6836 25.9553
lfingers 7.12502
lthumb 4.71427 55.8828
rfemur -2.87838 -1.18873 21.4977
rtibia 29.6517
rfoot -18.4189 -5.30201
rtoes 2.47295
lfemur -20.3631 -2.8278 -14.3736
ltibia 50.6143
lfoot -8.51177 -21.5678
ltoes -22.376
455
root 2.66929 17.8372 -4.38237 -1.59337 48.4524 2.22552
lowerback 12.2406 2.1282 1.44755
upperback 0.60031 3.14802 1.50023
thorax -6.24127 1.53178 0.213905
lowerneck -19.355 0.25513 -8.874
upperneck 36.5167 2.83869 4.3022
head 16.0971 0.793813 4.0524
rclavicle -3.23025e-014 0
rhumerus -34.1629 -13.2123 -75.9119
rradius 29.8215
rwrist 9.53373
rhand -15.0443 8.66229
rfingers 7.12502
rthumb 11.122 -21.023
lclavicle -3.23025e-014 0
lhumerus -31.3455 12.9878 83.4564
lradius 30.2022
lwrist -4.44673
lhand -22.1619 26.0845
lfingers 7.12502
lthumb 4.25239 56.0218
rfemur -2.58248 -1.50039 21.0917
rtibia 29.1678
rfoot -18.178 -5.18401
rtoes 1.99349
lfemur -20.7262 -3.43114 -14.0154
ltibia 51.0006
lfoot -8.67092 -20.5871
ltoes -23.1564
456
root 2.70488 17.8623 -4.42509 -1.46664 48.5103 2.46997
lowerback 12.3295 2.1009 1.34873
upperback 0.667395 3.09469 1.43578
thorax -6.22157 1.50796 0.208833
lowerneck -19.4322 0.235181 -8.82116
upperneck 36.5039 2.81769 4.23917
head 16.1142 0.781883 4.01288
rclavicle -1.47101e-014 -1.03368e-014
rhumerus -33.8792 -14.0401 -75.553
rradius 29.6431
rwrist 9.63793
rhand -15.269 8.44464
rfingers 7.12502
rthumb 10.9053 -21.2522
lclavicle -1.47101e-014 -1.03368e-014
lhumerus -31.4744 13.103 83.4993
lradius 30.1502
lwrist -4.3363
lhand -22.4111 25.9713
lfingers 7.12502
lthumb 4.01183 55.9132
rfemur -2.30472 -1.70365 20.6551
rtibia 28.7255
rfoot -18.0131 -4.99985
rtoes 1.56777
lfemur -21.0889 -4.08916 -13.6108
ltibia 51.3611
lfoot -7.68756 -19.9808
ltoes -21.0611
457
root 2.73909 17.8841 -4.46504 -1.46449 48.5228 2.63562
lowerback 12.491 2.0744 1.27778
upperback 0.762083 3.04671 1.35805
thorax -6.21087 1.48583 0.171102
lowerneck -19.486 0.254749 -8.73081
upperneck 36.4348 2.81971 4.21464
head 16.0934 0.79218 3.98377
rclavicle -8.47817e-014 2.94201e-014
rhumerus -33.5772 -14.8184 -75.3373
rradius 29.46
rwrist 9.5488
rhand -16.0686 8.44284
rfingers 7.12502
rthumb 10.134 -21.2931
lclavicle -8.47817e-014 2.94201e-014
lhumerus -31.5287 13.139 83.5256
lradius 30.1031
lwrist -4.27761
lhand -22.8448 26.0992
lfingers 7.12502
lthumb 3.59295 56.0486
rfemur -1.95104 -1.6119 20.3389
rtibia 28.2915
rfoot -17.8283 -5.00391
rtoes 1.73234
lfemur -21.2919 -4.70696 -13.0852
ltibia 51.7053
lfoot -6.77092 -19.466
ltoes -19.0184
458
root 2.77234 17.8995 -4.50685 -1.38109 48.4975 2.90792
lowerback 12.683 2.08384 1.1605
upperback 0.815053 3.03626 1.21633
thorax -6.26006 1.48148 0.0835717
lowerneck -19.3691 0.27754 -8.71558
upperneck 36.3175 2.75967 4.38807
head 16.0047 0.799104 4.03614
rclavicle -2.43014e-014 0
rhumerus -33.4463 -15.5526 -75.2017
rradius 29.4151
rwrist 9.18354
rhand -17.326 8.54195
rfingers 7.12502
rthumb 8.92078 -21.2495
lclavicle -2.43014e-014 0
lhumerus -31.6404 13.077 83.4915
lradius 30.0336
lwrist -4.35218
lhand -23.3056 26.0893
lfingers 7.12502
lthumb 3.14799 56.0458
rfemur -1.58131 -1.51027 19.9584
rtibia 27.8116
rfoot -17.5586 -5.05244
rtoes 1.47902
lfemur -21.4503 -5.22202 -12.6317
ltibia 52.0342
lfoot -6.03381 -18.9462
ltoes -17.9518
459
root 2.80876 17.9157 -4.54999 -1.28747 48.3544 3.17487
lowerback 12.8182 2.13748 1.04193
upperback 0.883958 3.08281 1.07953
thorax -6.26071 1.50574 -0.00572808
lowerneck -19.3372 0.265284 -8.68504
upperneck 36.2687 2.66852 4.52378
head 15.9763 0.7864 4.07004
rclavicle -8.19987e-015 8.74653e-015
rhumerus -33.3394 -16.3116 -75.0366
rradius 29.4766
rwrist 8.71254
rhand -18.0844 8.592
rfingers 7.12502
rthumb 8.18891 -21.2293
lclavicle -8.19987e-015 8.74653e-015
lhumerus -31.6904 13.1249 83.3895
lradius 29.8406
lwrist -4.58144
lhand -23.7829 26.0322
lfingers 7.12502
lthumb 2.687 55.995
rfemur -1.25214 -1.36919 19.5638
rtibia 27.3484
rfoot -17.275 -5.0522
rtoes 1.09464
lfemur -21.599 -5.61157 -12.1833
ltibia 52.3251
lfoot -4.98092 -18.51
ltoes -16.2748
460
root 2.84811 17.9319 -4.5947 -1.33131 48.1271 3.24643
lowerback 12.959 2.20234 1.04343
upperback 0.931368 3.16539 0.995878
thorax -6.28368 1.54481 -0.113984
lowerneck -19.2912 0.266187 -8.65013
upperneck 36.2271 2.62093 4.5948
head 15.9466 0.783077 4.08269
rclavicle 1.19022e-013 -1.59028e-015
rhumerus -33.3128 -17.0197 -74.8594
rradius 29.6346
rwrist 8.14797
rhand -17.9926 8.4169
rfingers 7.12502
rthumb 8.27748 -21.4009
lclavicle 1.19022e-013 -1.59028e-015
lhumerus -31.7534 13.3547 83.1803
lradius 29.6062
lwrist -4.98889
lhand -24.0914 25.805
lfingers 7.12502
lthumb 2.3891 55.7714
rfemur -0.961267 -1.0863 19.3098
rtibia 26.8978
rfoot -17.014 -5.0453
rtoes 0.859993
lfemur -21.7118 -5.99358 -11.5834
ltibia 52.5725
lfoot -3.6933 -18.0714
ltoes -13.38
